<svg id="Layer_1" data-name="Layer 1" xmlns="http://www.w3.org/2000/svg" viewBox="0 0 72.95 75"><defs><style>.cls-1{fill:#fff;}</style></defs><title>ic_fab_check</title><path class="cls-1" d="M36.48,50.63A13.13,13.13,0,1,1,49.61,37.5,13.12,13.12,0,0,1,36.48,50.63m27.86-9.49a29.14,29.14,0,0,0,.26-3.64,32.07,32.07,0,0,0-.26-3.75l7.91-6.11a1.89,1.89,0,0,0,.45-2.4l-7.5-13a1.84,1.84,0,0,0-2.29-.82l-9.34,3.75a27.18,27.18,0,0,0-6.34-3.68L45.86,1.58A1.9,1.9,0,0,0,44,0H29a1.9,1.9,0,0,0-1.87,1.58l-1.39,9.94a27.18,27.18,0,0,0-6.34,3.68L10,11.44a1.84,1.84,0,0,0-2.29.82l-7.5,13a1.85,1.85,0,0,0,.45,2.4l7.91,6.11a32.07,32.07,0,0,0-.26,3.75,29.14,29.14,0,0,0,.26,3.64L.71,47.36a1.85,1.85,0,0,0-.45,2.4l7.5,13a1.88,1.88,0,0,0,2.29.83l9.34-3.79a26,26,0,0,0,6.34,3.71l1.39,9.94A1.9,1.9,0,0,0,29,75H44a1.9,1.9,0,0,0,1.88-1.58l1.39-9.94a27.31,27.31,0,0,0,6.34-3.71l9.34,3.79a1.88,1.88,0,0,0,2.29-.83l7.5-13a1.89,1.89,0,0,0-.45-2.4Z"/></svg>